<?xml version="1.0" encoding="UTF-8"?>
<svg version="1.1" xmlns="http://www.w3.org/2000/svg" width="512" height="512">
<path d="M0 0 C7.79042333 6.89839012 15.4390846 13.9026677 22 22 C22.97043174 23.14791586 23.94189541 24.29495968 24.9140625 25.44140625 C63.82932302 71.75997282 82.57434544 132.42975469 77.50390625 192.66015625 C71.58546534 252.42838743 43.92924349 310.44864098 -3 349 C-39.06659451 378.1875655 -80.79902194 396.57222303 -127 402 C-128.08410156 402.13148438 -129.16820312 402.26296875 -130.28515625 402.3984375 C-161.21415609 405.41391311 -193.54766209 401.88507961 -223 392 C-223.83998535 391.72172363 -224.6799707 391.44344727 -225.54541016 391.15673828 C-250.18457041 382.89602979 -272.59788213 371.11595865 -293 355 C-293.89976562 354.29359375 -294.79953125 353.5871875 -295.7265625 352.859375 C-342.907309 315.06039077 -373.40797409 260.55014964 -380.73388672 200.43115234 C-387.28979894 140.53778183 -371.4192951 79.44110556 -334.0625 31.875 C-332.71838308 30.2416776 -331.36313311 28.61748585 -330 27 C-329.55011719 26.46133301 -329.10023438 25.92266602 -328.63671875 25.36767578 C-319.23544077 14.12769139 -309.51062124 4.12756294 -298 -5 C-296.91582857 -5.88569383 -295.83252329 -6.77244876 -294.75 -7.66015625 C-220.07457687 -68.37424164 -111.19613003 -72.57991039 0 0 Z M-287 30 C-287.55413574 30.52158691 -288.10827148 31.04317383 -288.67919922 31.58056641 C-321.22429335 62.39388718 -343.1273821 105.26050837 -348 150 C-348.10957031 150.88042969 -348.21914063 151.76085937 -348.33203125 152.66796875 C-353.70295384 203.44109028 -338.28884327 255.33834155 -306.515625 295.15722656 C-301.0557323 301.79563991 -295.079154 307.93060387 -289 314 C-288.34 314.69480469 -287.68 315.38960938 -287 316.10546875 C-253.51644977 350.96236772 -202.64047698 369.20984399 -155.046875 370.28759766 C-122.74824041 370.58174594 -90.19328978 363.21689561 -61.69873047 347.90820312 C-60.18665314 347.09979156 -58.65874034 346.32115838 -57.12890625 345.546875 C-26.39607752 329.65530829 -0.74676843 303.41208973 17 274 C17.37366699 273.38962891 17.74733398 272.77925781 18.13232422 272.15039062 C34.32351011 245.49880106 44.12443213 213.21589812 45 182 C45.02046387 181.35353516 45.04092773 180.70707031 45.06201172 180.04101562 C46.40738951 131.78531635 30.71869358 83.72348744 -1 47 C-1.6703125 46.22011719 -2.340625 45.44023437 -3.03125 44.63671875 C-37.66737832 5.29459473 -83.96295941 -18.37286112 -136.1875 -23.75 C-138.12338658 -23.86486447 -140.06151573 -23.9440588 -142 -24 C-142.69561035 -24.02046387 -143.3912207 -24.04092773 -144.10791016 -24.06201172 C-197.50928006 -25.40509336 -248.16900821 -6.93134615 -287 30 Z " fill="#6384F4" transform="translate(408,83)"/>
<path d="M0 0 C3.90476126 3.24168859 6.61218866 6.15438434 7.12055016 11.37782764 C7.12390184 12.39008254 7.12725353 13.40233744 7.13070679 14.44526672 C7.13923676 15.61021667 7.14776672 16.77516663 7.15655518 17.97541809 C7.1556488 19.24979233 7.15474243 20.52416656 7.15380859 21.8371582 C7.15979448 23.19583505 7.16660016 24.55450851 7.17416382 25.91317749 C7.19182674 29.60132774 7.19651936 33.28938518 7.19779539 36.97757363 C7.19921758 39.28326331 7.2034885 41.58892944 7.20878983 43.89461327 C7.22729228 51.94269685 7.23546032 59.99071421 7.23388672 68.03881836 C7.23268581 75.53356615 7.25377754 83.02802573 7.28537405 90.52270061 C7.31155412 96.96276618 7.32225327 103.40273774 7.3209759 109.84285611 C7.3204667 113.68677126 7.32612627 117.53043036 7.347332 121.37429237 C7.3667434 124.9916868 7.36681955 128.60858173 7.35229874 132.22599411 C7.34922159 134.17960284 7.36586753 136.13321176 7.38317871 138.08674622 C7.33488531 144.84179348 7.04361922 149.31011822 2.86328125 154.734375 C-1.90851148 158.45637333 -5.67230502 159.39232699 -11.70703125 159.1171875 C-16.98064169 158.28629711 -20.13352052 155.97517281 -23.51171875 151.796875 C-25.90809539 147.28062672 -26.26133094 143.27463786 -26.27716064 138.21366882 C-26.28287079 137.1161026 -26.28858093 136.01853638 -26.29446411 134.88771057 C-26.29558197 133.69330856 -26.29669983 132.49890656 -26.29785156 131.26831055 C-26.30281647 130.00271301 -26.30778137 128.73711548 -26.31289673 127.4331665 C-26.32598062 123.96816041 -26.33245772 120.50317366 -26.33690739 117.03814673 C-26.33984436 114.87064656 -26.34395031 112.7031516 -26.34841156 110.53565407 C-26.36207539 103.74612507 -26.37174772 96.95660807 -26.37561345 90.16706628 C-26.38009283 82.34406026 -26.39763971 74.52122909 -26.42661405 66.69827622 C-26.44826522 60.64119668 -26.45831955 54.58416622 -26.45965457 48.52704841 C-26.46070006 44.91398211 -26.46655316 41.30108041 -26.48447418 37.68805504 C-26.50409169 33.65480391 -26.49965226 29.6219167 -26.49316406 25.58862305 C-26.50698624 23.80612907 -26.50698624 23.80612907 -26.52108765 21.98762512 C-26.48505483 14.83156084 -26.17356878 8.44764639 -21.453125 2.67578125 C-20.58494141 1.99322266 -20.58494141 1.99322266 -19.69921875 1.296875 C-19.12300781 0.82378906 -18.54679688 0.35070312 -17.953125 -0.13671875 C-12.70824825 -3.39643785 -5.25282866 -3.11136469 0 0 Z " fill="#6384F3" transform="translate(265.13671875,220.265625)"/>
<path d="M0 0 C4.82479145 3.60406109 8.15064221 8.76399746 9.26953125 14.6953125 C9.83950013 22.10490799 8.08059374 27.74352855 3.45703125 33.5078125 C-0.79390255 38.09297205 -5.30927058 40.15366284 -11.59765625 40.6796875 C-19.39118983 40.73678298 -24.2469737 38.32330509 -29.84375 32.90234375 C-34.06058455 27.96960769 -35.38944052 22.49693457 -35.14453125 16.0625 C-34.11877678 10.19828103 -31.23785773 4.68281185 -26.79296875 0.6953125 C-18.15011534 -4.94899993 -8.97058006 -4.94441421 0 0 Z " fill="#6384F4" transform="translate(268.73046875,152.3046875)"/>
</svg>
